# xmcd CD database file
#
# Track frame offsets:
#	150
#	16325
#	36065
#	55800
#	69670
#	87007
#	105115
#	124872
#	142645
#	160067
#	182977
#	197547
#
# Disc length: 2970 seconds
#
# Revision: 3
# Processed by: cddbd v1.5.2PL0 Copyright (c) Steve Scherf et al.
# Submitted via: CDex 1.70beta2
#
DISCID=8e0b980c
DTITLE=南佳孝 - YOSHITAKA MINAMI
DYEAR=1985
DGENRE=Blues
TTITLE0=スタンダード・ナンバー
TTITLE1=CHAT NOIR(黒猫)
TTITLE2=PEACE
TTITLE3=昼下がりのテーブル
TTITLE4=SCOTCH AND RAIN
TTITLE5=二人のスローダンス
TTITLE6=クレッセント・ナイト
TTITLE7=プールサイド
TTITLE8=日付変更線
TTITLE9=曠野へ
TTITLE10=スローなブギにしてくれ(I Want You)
TTITLE11=冒険王
EXTD=YEAR: 1985
EXTT0=
EXTT1=
EXTT2=
EXTT3=
EXTT4=
EXTT5=
EXTT6=
EXTT7=
EXTT8=
EXTT9=
EXTT10=
EXTT11=
PLAYORDER=
